<svg width="36" height="39" viewBox="0 0 36 39" fill="none" xmlns="http://www.w3.org/2000/svg">
<ellipse cx="20.3225" cy="23.2811" rx="15.2004" ry="15.0835" fill="#4465CC"/>
<ellipse cx="7.60022" cy="15.7393" rx="7.60022" ry="7.54176" fill="#C8FEFB"/>
<ellipse cx="18.6704" cy="4.75459" rx="4.79145" ry="4.75459" fill="#308677"/>
<ellipse cx="13.8788" cy="10.9847" rx="4.79145" ry="4.75459" fill="#62C9BC"/>
<ellipse cx="24.8658" cy="9.59113" rx="6.19583" ry="6.14817" fill="#C8FEFB"/>
<mask id="path-6-inside-1" fill="white">
<path fill-rule="evenodd" clip-rule="evenodd" d="M30.5244 12.0994C33.5944 14.8592 35.5228 18.8467 35.5228 23.2811C35.5228 31.6115 28.7174 38.3646 20.3224 38.3646C11.9274 38.3646 5.12192 31.6115 5.12192 23.2811C5.12192 23.1446 5.12375 23.0085 5.12738 22.8729C2.14388 21.8547 0 19.0455 0 15.7393C0 11.5741 3.40274 8.19757 7.60022 8.19757C8.35943 8.19757 9.09263 8.30803 9.7844 8.51364C10.6255 7.14437 12.1445 6.23013 13.8787 6.23013C13.9582 6.23013 14.0372 6.23205 14.1158 6.23585C13.9619 5.76969 13.8787 5.27178 13.8787 4.75459C13.8787 2.1287 16.0239 0 18.6701 0C20.9273 0 22.82 1.54883 23.3277 3.63392C23.8196 3.50924 24.3349 3.44295 24.8659 3.44295C28.2878 3.44295 31.0618 6.19559 31.0618 9.59113C31.0618 10.4845 30.8697 11.3334 30.5244 12.0994Z"/>
</mask>
<path d="M30.5244 12.0994L29.6128 11.6884L29.3124 12.3546L29.8559 12.8431L30.5244 12.0994ZM5.12738 22.8729L6.12702 22.8997L6.14672 22.1641L5.45036 21.9265L5.12738 22.8729ZM9.7844 8.51364L9.4995 9.4722L10.2349 9.69078L10.6365 9.03703L9.7844 8.51364ZM14.1158 6.23585L14.0675 7.23468L15.5218 7.305L15.0654 5.92239L14.1158 6.23585ZM23.3277 3.63392L22.3561 3.8705L22.5949 4.85131L23.5734 4.60326L23.3277 3.63392ZM29.8559 12.8431C32.7249 15.4222 34.5228 19.1435 34.5228 23.2811H36.5228C36.5228 18.5499 34.464 14.2962 31.1929 11.3557L29.8559 12.8431ZM34.5228 23.2811C34.5228 31.0519 28.1724 37.3646 20.3224 37.3646V39.3646C29.2623 39.3646 36.5228 32.171 36.5228 23.2811H34.5228ZM20.3224 37.3646C12.4724 37.3646 6.12192 31.0519 6.12192 23.2811H4.12192C4.12192 32.171 11.3824 39.3646 20.3224 39.3646V37.3646ZM6.12192 23.2811C6.12192 23.1535 6.12363 23.0264 6.12702 22.8997L4.12774 22.8461C4.12387 22.9907 4.12192 23.1357 4.12192 23.2811H6.12192ZM5.45036 21.9265C2.85538 21.0409 1 18.6006 1 15.7393H-1C-1 19.4903 1.43238 22.6686 4.80441 23.8193L5.45036 21.9265ZM1 15.7393C1 12.1337 3.94773 9.19757 7.60022 9.19757V7.19757C2.85775 7.19757 -1 11.0146 -1 15.7393H1ZM7.60022 9.19757C8.26199 9.19757 8.89926 9.29379 9.4995 9.4722L10.0693 7.55508C9.286 7.32227 8.45687 7.19757 7.60022 7.19757V9.19757ZM10.6365 9.03703C11.302 7.95364 12.5039 7.23013 13.8787 7.23013V5.23013C11.785 5.23013 9.94898 6.3351 8.93231 7.99025L10.6365 9.03703ZM13.8787 7.23013C13.9421 7.23013 14.005 7.23166 14.0675 7.23468L14.1641 5.23701C14.0695 5.23244 13.9743 5.23013 13.8787 5.23013V7.23013ZM15.0654 5.92239C14.9444 5.55604 14.8787 5.16389 14.8787 4.75459H12.8787C12.8787 5.37968 12.9794 5.98335 13.1662 6.54931L15.0654 5.92239ZM14.8787 4.75459C14.8787 2.68825 16.5689 1 18.6701 1V-1C15.4789 -1 12.8787 1.56915 12.8787 4.75459H14.8787ZM18.6701 1C20.4605 1 21.9561 2.22787 22.3561 3.8705L24.2993 3.39734C23.6839 0.869788 21.3942 -1 18.6701 -1V1ZM23.5734 4.60326C23.9856 4.49878 24.4185 4.44296 24.8659 4.44296V2.44295C24.2514 2.44295 23.6535 2.5197 23.082 2.66458L23.5734 4.60326ZM24.8659 4.44296C27.7428 4.44296 30.0618 6.75514 30.0618 9.59113H32.0618C32.0618 5.63604 28.8328 2.44295 24.8659 2.44295V4.44296ZM30.0618 9.59113C30.0618 10.3399 29.9011 11.0489 29.6128 11.6884L31.436 12.5104C31.8384 11.618 32.0618 10.6292 32.0618 9.59113H30.0618Z" fill="#119BAD" mask="url(#path-6-inside-1)"/>
<path d="M13.8789 23.773C14.1649 24.4093 14.4932 25.3201 15.3266 25.3201" stroke="#7EC8DA" stroke-linecap="round" stroke-linejoin="round"/>
<path d="M19.6655 24.7557C19.9584 24.3206 20.5986 24.0786 21.0347 24.5781C21.5366 25.153 20.7374 26.032 20.5507 26.5399C20.2049 27.4808 22.1778 27.062 22.4637 26.997C23.1337 26.8446 23.3682 27.4887 23.3062 28.0731" stroke="#7EC8DA" stroke-linecap="round" stroke-linejoin="round"/>
<path d="M10.8291 31.1216C11.0074 30.993 12.0321 30.4239 12.0541 31.0357C12.0644 31.3214 12.0541 31.6092 12.0541 31.8951C12.0541 32.4554 12.7251 32.0933 13.0564 32.0057" stroke="#7EC8DA" stroke-linecap="round" stroke-linejoin="round"/>
<path d="M17.1831 18.2629C17.3152 17.927 17.3048 17.3788 17.7399 17.3788" stroke="#7EC8DA" stroke-linecap="round" stroke-linejoin="round"/>
<path d="M21.644 20.2751C21.691 20.0749 21.7547 19.1823 22.0957 19.1823C22.4644 19.1823 22.4236 19.6748 22.4236 19.9251C22.4236 20.4409 22.6443 20.3856 23.0918 20.3856" stroke="#7EC8DA" stroke-linecap="round" stroke-linejoin="round"/>
<path d="M31.4312 18.4134C32.174 18.6503 32.3221 18.8141 32.3221 19.5123C32.3221 20.1194 32.1585 20.0416 31.6539 20.292" stroke="#7EC8DA" stroke-linecap="round" stroke-linejoin="round"/>
<path d="M29.8723 24.9333C29.3792 25.6599 29.0719 25.9764 29.897 26.4803C30.3594 26.7627 30.2672 27.1132 29.7609 27.3644" stroke="#7EC8DA" stroke-linecap="round" stroke-linejoin="round"/>
<path d="M27.311 33.5527C27.4452 32.8132 27.8678 32.4266 27.8678 31.6741" stroke="#7EC8DA" stroke-linecap="round" stroke-linejoin="round"/>
<path d="M18.8354 33.61C19.5582 33.7674 19.9637 33.9415 20.7286 33.9415" stroke="#7EC8DA" stroke-linecap="round" stroke-linejoin="round"/>
<path d="M8.37915 25.0437C8.20288 25.5451 8.12707 25.8661 8.60187 26.1488" stroke="#7EC8DA" stroke-linecap="round" stroke-linejoin="round"/>
<path d="M26.4355 17.3824C27.0391 17.3824 27.379 17.3512 27.8833 17.0509" stroke="#7EC8DA" stroke-linecap="round" stroke-linejoin="round"/>
<ellipse cx="15.1178" cy="28.6095" rx="0.578278" ry="0.573831" fill="#C8FEFB"/>
<ellipse cx="23.3788" cy="34.0199" rx="0.743501" ry="0.73778" fill="#7EC8DA"/>
<ellipse cx="26.0268" cy="24.0651" rx="1.05513" ry="1.04631" fill="#C8FEFB"/>
<ellipse cx="33.1268" cy="24.5108" rx="0.743498" ry="0.737781" fill="#7EC8DA"/>
<ellipse cx="8.67416" cy="27.9537" rx="0.7435" ry="0.737782" fill="#C8FEFB"/>
<ellipse cx="18.1747" cy="20.0021" rx="0.330442" ry="0.327903" fill="#C8FEFB"/>
<ellipse cx="26.1053" cy="19.3463" rx="0.330444" ry="0.3279" fill="#7EC8DA"/>
<ellipse cx="31.7225" cy="16.0672" rx="0.330444" ry="0.327903" fill="#C8FEFB"/>
<ellipse cx="30.7313" cy="30.8228" rx="0.330443" ry="0.327904" fill="#C8FEFB"/>
<ellipse cx="20.9833" cy="30.1671" rx="0.330443" ry="0.327902" fill="#7EC8DA"/>
<ellipse cx="16.7699" cy="34.6757" rx="0.7435" ry="0.737782" fill="#7EC8DA"/>
</svg>
