<svg width="59" height="47" viewBox="0 0 59 47" fill="none" xmlns="http://www.w3.org/2000/svg">
<ellipse cx="16.815" cy="12.3526" rx="12.095" ry="12.3526" fill="#F3F3F3"/>
<ellipse cx="33.9248" cy="9.33974" rx="9.145" ry="9.33974" fill="#989898"/>
<ellipse cx="46.3149" cy="21.9936" rx="12.685" ry="12.9551" fill="white"/>
<ellipse cx="43.3652" cy="35.8526" rx="10.915" ry="11.1474" fill="#C4C4C4"/>
<ellipse cx="8.26" cy="24.7051" rx="8.26" ry="8.4359" fill="white"/>
<ellipse cx="28.9099" cy="20.4872" rx="8.26" ry="8.4359" fill="#C4C4C4"/>
<ellipse cx="20.6501" cy="33.141" rx="8.26" ry="8.4359" fill="#989898"/>
<ellipse cx="32.4499" cy="30.1282" rx="8.26" ry="8.4359" fill="#F3F3F3"/>
<ellipse cx="20.6501" cy="21.6923" rx="8.26" ry="8.4359" fill="#E3E3E3"/>
<mask id="path-10-inside-1" fill="white">
<path fill-rule="evenodd" clip-rule="evenodd" d="M12.4697 31.9648C11.2369 32.712 9.7975 33.141 8.26 33.141C3.69813 33.141 0 29.3641 0 24.7051C0 21.0314 2.29931 17.9062 5.50836 16.7486C4.99896 15.3829 4.72 13.901 4.72 12.3526C4.72 5.53043 10.1351 0 16.815 0C20.5584 0 23.9046 1.73683 26.1232 4.46451C27.731 1.7865 30.6237 0 33.925 0C38.9756 0 43.07 4.18155 43.07 9.33974C43.07 9.38205 43.0697 9.42429 43.0692 9.46646C44.1052 9.18721 45.1931 9.03846 46.315 9.03846C53.3207 9.03846 59 14.8387 59 21.9936C59 26.303 56.9398 30.1209 53.7704 32.4762C54.1014 33.5412 54.28 34.6756 54.28 35.8526C54.28 42.0091 49.3932 47 43.365 47C38.2503 47 33.9573 43.4071 32.7736 38.5577C32.6663 38.562 32.5584 38.5641 32.45 38.5641C30.7715 38.5641 29.21 38.0528 27.9065 37.1744C26.5058 39.7973 23.7814 41.5769 20.65 41.5769C16.0881 41.5769 12.39 37.8 12.39 33.141C12.39 32.7419 12.4171 32.3492 12.4697 31.9648Z"/>
</mask>
<path d="M12.4697 31.9648L14.4513 32.2355L15.0188 28.081L11.433 30.2544L12.4697 31.9648ZM5.50836 16.7486L6.18701 18.63L8.08877 17.944L7.38226 16.0497L5.50836 16.7486ZM26.1232 4.46451L24.5716 5.7265L26.3705 7.93813L27.8379 5.49398L26.1232 4.46451ZM43.0692 9.46646L41.0693 9.44041L41.0349 12.0862L43.5897 11.3975L43.0692 9.46646ZM53.7704 32.4762L52.5775 30.8709L51.4398 31.7163L51.8605 33.0698L53.7704 32.4762ZM32.7736 38.5577L34.7166 38.0835L34.3289 36.495L32.695 36.5593L32.7736 38.5577ZM27.9065 37.1744L29.0242 35.5158L27.1863 34.2772L26.1423 36.2323L27.9065 37.1744ZM8.26 35.141C10.1752 35.141 11.9715 34.6054 13.5064 33.6751L11.433 30.2544C10.5023 30.8186 9.41985 31.141 8.26 31.141V35.141ZM-2 24.7051C-2 30.4288 2.55404 35.141 8.26 35.141V31.141C4.84222 31.141 2 28.2995 2 24.7051H-2ZM4.82972 14.8673C0.832307 16.3093 -2 20.1837 -2 24.7051H2C2 21.8791 3.76632 19.5032 6.18701 18.63L4.82972 14.8673ZM2.72 12.3526C2.72 14.1427 3.04274 15.8611 3.63446 17.4476L7.38226 16.0497C6.95519 14.9047 6.72 13.6593 6.72 12.3526H2.72ZM16.815 -2C8.99103 -2 2.72 4.4658 2.72 12.3526H6.72C6.72 6.59506 11.2792 2 16.815 2V-2ZM27.6748 3.20252C25.0984 0.0349822 21.1944 -2 16.815 -2V2C19.9225 2 22.7108 3.43869 24.5716 5.7265L27.6748 3.20252ZM33.925 -2C29.8793 -2 26.3557 0.191854 24.4085 3.43504L27.8379 5.49398C29.1064 3.38114 31.3681 2 33.925 2V-2ZM45.07 9.33974C45.07 3.11691 40.1197 -2 33.925 -2V2C37.8316 2 41.07 5.24618 41.07 9.33974H45.07ZM45.069 9.49251C45.0697 9.44163 45.07 9.3907 45.07 9.33974H41.07C41.07 9.37339 41.0698 9.40695 41.0693 9.44041L45.069 9.49251ZM46.315 7.03846C45.0155 7.03846 43.7527 7.21085 42.5487 7.53538L43.5897 11.3975C44.4577 11.1636 45.3706 11.0385 46.315 11.0385V7.03846ZM61 21.9936C61 13.774 54.4648 7.03846 46.315 7.03846V11.0385C52.1766 11.0385 57 15.9033 57 21.9936H61ZM54.9633 34.0815C58.627 31.3589 61 26.9521 61 21.9936H57C57 25.6538 55.2525 28.883 52.5775 30.8709L54.9633 34.0815ZM56.28 35.8526C56.28 34.4723 56.0704 33.1379 55.6802 31.8825L51.8605 33.0698C52.1324 33.9445 52.28 34.8788 52.28 35.8526H56.28ZM43.365 49C50.5373 49 56.28 43.0738 56.28 35.8526H52.28C52.28 40.9445 48.2491 45 43.365 45V49ZM30.8307 39.032C32.2213 44.7296 37.2805 49 43.365 49V45C39.2201 45 35.6932 42.0846 34.7166 38.0835L30.8307 39.032ZM32.45 40.5641C32.5847 40.5641 32.7188 40.5614 32.8522 40.5562L32.695 36.5593C32.6138 36.5625 32.5321 36.5641 32.45 36.5641V40.5641ZM26.7888 38.8329C28.41 39.9255 30.3584 40.5641 32.45 40.5641V36.5641C31.1846 36.5641 30.0099 36.1801 29.0242 35.5158L26.7888 38.8329ZM20.65 43.5769C24.5639 43.5769 27.9436 41.3507 29.6707 38.1165L26.1423 36.2323C25.068 38.244 22.9989 39.5769 20.65 39.5769V43.5769ZM10.39 33.141C10.39 38.8647 14.944 43.5769 20.65 43.5769V39.5769C17.2322 39.5769 14.39 36.7354 14.39 33.141H10.39ZM10.4881 31.6941C10.4233 32.168 10.39 32.6511 10.39 33.141H14.39C14.39 32.8326 14.411 32.5304 14.4513 32.2355L10.4881 31.6941Z" fill="#6A6761" mask="url(#path-10-inside-1)"/>
</svg>
