<svg width="57" height="50" viewBox="0 0 57 50" fill="none" xmlns="http://www.w3.org/2000/svg">
<path d="M28.5957 36.4765C29.2777 40.2657 30.829 42.6149 32.5106 44.0142M37.3687 45.8477C36.1709 45.9022 34.2695 45.4779 32.5106 44.0142M32.5106 44.0142C32.9522 47.4334 31.755 47.9456 31.1012 47.7743" stroke="#B557A1"/>
<path d="M11.8433 32.3004C8.45837 32.5154 6.23636 33.6689 4.83005 35.0407M2.69713 39.2382C2.78049 38.1496 3.35901 36.4757 4.83005 35.0407M4.83005 35.0407C1.79463 35.0776 1.47805 33.9411 1.69918 33.3682" stroke="#B557A1"/>
<path d="M19.7812 17.6075C17.9556 14.385 15.7901 12.7543 13.8066 12.0294M8.77609 11.9433C9.85584 11.5041 11.7317 11.2712 13.8066 12.0294M13.8066 12.0294C12.3183 9.06504 13.2524 8.20998 13.9054 8.153" stroke="#B557A1"/>
<path d="M36.0156 21.4943C35.2412 15.8448 36.3551 11.8016 38.0885 9.03049M44.1096 4.12795C42.3927 4.62515 39.9017 6.13186 38.0885 9.03049M38.0885 9.03049C37.1443 4.01581 35.2185 3.86973 34.3736 4.42353" stroke="#B557A1"/>
<path d="M42.0088 31.1078C45.676 31.735 48.3325 31.0657 50.1717 29.9568M53.4822 26.0145C53.1253 27.1558 52.0956 28.7968 50.1717 29.9568M50.1717 29.9568C53.422 30.6856 53.4804 31.9793 53.1033 32.535" stroke="#B557A1"/>
<path d="M10.7716 32.5898C9.26363 27.0187 7.43248 20.6829 21.0045 11.9439C24.2719 8.30259 31.4313 5.3022 41.2549 16.3134C43.7323 21.6661 49.0103 16.3134 46.3175 31.279C50.8415 34.0099 45.4558 46.0585 29.514 39.4718C20.7891 35.867 21.0045 44.4968 10.7716 32.5898Z" fill="#DD94C1" stroke="#B557A1"/>
<path d="M44.9333 29.531C43.6474 33.0389 42.2394 37.065 32.7707 37.5346C29.9417 38.4843 25.522 37.8561 24.864 28.7618C25.6185 25.0667 21.2378 26.3127 27.8451 19.0191C26.7058 16.1044 33.5297 11.2486 38.6295 19.8672C41.4207 24.5842 44.404 19.82 44.9333 29.531Z" fill="#B557A1" stroke="#DD94C1"/>
<ellipse cx="32.6377" cy="25.8171" rx="4.84716" ry="4.91571" fill="#E5E5E5"/>
<ellipse cx="38.8848" cy="30.842" rx="1.61572" ry="1.63857" fill="#E5E5E5"/>
<ellipse cx="15.5107" cy="23.0862" rx="1.07715" ry="1.09238" fill="#E3E3E3"/>
<ellipse cx="24.1282" cy="34.6654" rx="0.646288" ry="0.655428" fill="#B557A1"/>
<ellipse cx="39.2083" cy="38.161" rx="0.646286" ry="0.655428" fill="#E3E3E3"/>
<ellipse cx="41.1468" cy="20.6829" rx="0.646288" ry="0.655427" fill="#B557A1"/>
<ellipse cx="17.665" cy="31.1698" rx="1.07715" ry="1.09238" fill="#B557A1"/>
<ellipse cx="23.6973" cy="15.221" rx="1.07715" ry="1.09238" fill="#B557A1"/>
<ellipse cx="22.0815" cy="21.4476" rx="0.538573" ry="0.54619" fill="#E3E3E3"/>
<ellipse cx="33.2837" cy="13.5824" rx="0.538574" ry="0.54619" fill="#E3E3E3"/>
<path d="M13.2299 26.4178C13.0786 27.3579 12.566 28.8699 13.494 29.4972" stroke="#E3E3E3" stroke-linecap="round" stroke-linejoin="round"/>
<path d="M18.9067 26.5517C19.2419 26.4854 20.1821 26.1749 20.227 26.7897C20.2643 27.3013 20.1705 27.6746 19.9043 28.0989C19.5925 28.5957 21.062 29.3182 21.4152 29.4973" stroke="#E3E3E3" stroke-linecap="round" stroke-linejoin="round"/>
<path d="M25.5078 12.3593C25.8407 12.0217 26.6874 10.9192 27.2094 11.6377C27.5193 12.0642 27.4406 12.9236 27.4882 13.4304C27.508 13.6419 27.934 13.9747 28.1483 13.9436C28.4025 13.9068 28.7886 12.9912 29.0724 12.7609" stroke="#E3E3E3" stroke-linecap="round" stroke-linejoin="round"/>
<path d="M18.9067 17.9827C19.1139 18.2059 19.3151 18.6597 19.5669 18.8157C19.7177 18.9092 19.9334 18.9738 20.0656 19.0835C20.475 19.4232 21.1831 18.7292 21.5472 18.5182" stroke="#E3E3E3" stroke-linecap="round" stroke-linejoin="round"/>
<path d="M44.9157 34.8529C44.4113 34.9206 42.2861 35.0062 43.0087 35.9389C43.3382 36.3641 43.3314 36.6172 43.3314 37.129" stroke="#E3E3E3" stroke-linecap="round" stroke-linejoin="round"/>
<path d="M19.1709 35.5224C19.6216 35.7462 20.1915 36.0878 20.7258 35.8943C21.1068 35.7563 21.074 35.3329 21.2833 35.1207" stroke="#E3E3E3" stroke-linecap="round" stroke-linejoin="round"/>
<path d="M37.6169 14.1286C37.6169 14.8201 37.4849 15.5527 37.4849 16.2039C37.4849 16.8963 38.0514 16.8064 38.5411 16.8064" stroke="#E3E3E3" stroke-linecap="round" stroke-linejoin="round"/>
</svg>
