<svg width="45" height="45" viewBox="0 0 45 45" fill="none" xmlns="http://www.w3.org/2000/svg">
<path d="M7.73438 40.0781C6.95769 40.0781 6.32812 39.4485 6.32812 38.6719V5.80078C6.32812 2.60218 8.9303 0 12.1289 0H37.2656C38.0423 0 38.6719 0.629648 38.6719 1.40625V33.75C38.6719 34.5266 38.0423 35.1562 37.2656 35.1562C36.4889 35.1562 35.8594 34.5266 35.8594 33.75V2.8125H12.1289C10.4811 2.8125 9.14062 4.15301 9.14062 5.80078V38.6719C9.14062 39.4485 8.51106 40.0781 7.73438 40.0781Z" fill="#6A6761"/>
<path d="M37.2656 45H12.6562C9.1669 45 6.32812 42.1612 6.32812 38.6719C6.32812 35.1825 9.1669 32.3438 12.6562 32.3438H37.2656C38.0423 32.3438 38.6719 32.9734 38.6719 33.75C38.6719 34.5266 38.0423 35.1562 37.2656 35.1562H12.6562C10.7177 35.1562 9.14062 36.7334 9.14062 38.6719C9.14062 40.6104 10.7177 42.1875 12.6562 42.1875H37.2656C38.0423 42.1875 38.6719 42.8171 38.6719 43.5938C38.6719 44.3704 38.0423 45 37.2656 45Z" fill="#6A6761"/>
<path d="M37.2656 40.0781H12.6562C11.8796 40.0781 11.25 39.4485 11.25 38.6719C11.25 37.8953 11.8796 37.2656 12.6562 37.2656H37.2656C38.0423 37.2656 38.6719 37.8953 38.6719 38.6719C38.6719 39.4485 38.0423 40.0781 37.2656 40.0781Z" fill="#6A6761"/>
<path d="M14.0625 35.1562C13.2858 35.1562 12.6562 34.5266 12.6562 33.75V1.40625C12.6562 0.629648 13.2858 0 14.0625 0C14.8392 0 15.4688 0.629648 15.4688 1.40625V33.75C15.4688 34.5266 14.8392 35.1562 14.0625 35.1562Z" fill="#6A6761"/>
</svg>
