<svg width="39" height="39" viewBox="0 0 39 39" fill="none" xmlns="http://www.w3.org/2000/svg">
<circle cx="19.1823" cy="19.1823" r="18.6823" fill="#7EC8DA" stroke="#11ADC1"/>
<ellipse cx="28.5396" cy="10.7608" rx="2.0274" ry="2.0274" fill="#11ADC1"/>
<ellipse cx="28.5396" cy="10.7608" rx="2.0274" ry="2.0274" fill="#11ADC1"/>
<ellipse cx="28.5396" cy="24.1728" rx="2.0274" ry="2.0274" fill="#11ADC1"/>
<ellipse cx="28.5396" cy="24.1728" rx="2.0274" ry="2.0274" fill="#11ADC1"/>
<ellipse cx="19.1822" cy="30.7229" rx="2.0274" ry="2.0274" fill="#11ADC1"/>
<ellipse cx="19.1822" cy="30.7229" rx="2.0274" ry="2.0274" fill="#11ADC1"/>
<ellipse cx="33.8422" cy="17.9347" rx="1.09167" ry="1.09168" fill="#11ADC1"/>
<ellipse cx="33.8422" cy="17.9347" rx="1.09167" ry="1.09168" fill="#11ADC1"/>
<circle cx="16.9989" cy="23.2371" r="1.09168" fill="#11ADC1"/>
<circle cx="16.9989" cy="23.2371" r="1.09168" fill="#11ADC1"/>
<ellipse cx="21.6773" cy="25.7323" rx="0.467861" ry="0.46786" fill="#8974F1"/>
<ellipse cx="24.485" cy="12.6323" rx="0.467861" ry="0.467861" fill="#8974F1"/>
<ellipse cx="32.9063" cy="23.8609" rx="0.467859" ry="0.467862" fill="#8974F1"/>
<ellipse cx="5.77011" cy="25.4204" rx="0.46786" ry="0.46786" fill="#8974F1"/>
<circle cx="21.3658" cy="34.4657" r="0.467861" fill="#8974F1"/>
<ellipse cx="26.356" cy="6.08221" rx="0.467861" ry="0.467861" fill="#8974F1"/>
<ellipse cx="14.8155" cy="33.53" rx="0.467861" ry="0.467861" fill="#E5E5E5"/>
<ellipse cx="14.8155" cy="33.53" rx="0.467861" ry="0.467861" fill="#E5E5E5"/>
<ellipse cx="8.88922" cy="22.3014" rx="2.0274" ry="2.0274" fill="#11ADC1"/>
<ellipse cx="8.88922" cy="22.3014" rx="2.0274" ry="2.0274" fill="#11ADC1"/>
<path d="M20.3683 10.5848C21.4742 14.3654 19.306 18.3268 15.5254 19.4327C11.7447 20.5387 7.78339 18.3704 6.67745 14.5898C5.5715 10.8092 7.73976 6.84781 11.5204 5.74186C15.301 4.63592 19.2624 6.80418 20.3683 10.5848Z" fill="#11ADC1" stroke="#119BAD"/>
<path d="M5.35726 16.843C4.32446 18.116 4.05469 19.6315 4.05469 21.2392" stroke="#E3E3E3" stroke-linecap="round" stroke-linejoin="round"/>
<path d="M24.3812 16.8031C24.2845 17.4476 23.8123 18.6897 24.544 19.1368C24.82 19.3055 25.659 19.2804 25.4667 19.8333C25.272 20.3931 24.5946 20.5017 24.2545 20.9098C23.7685 21.493 24.9126 22.1334 25.1953 22.339" stroke="#E3E3E3" stroke-linecap="round" stroke-linejoin="round"/>
<path d="M19.9619 4.99054C20.7176 5.27394 21.3887 5.47321 21.6263 6.3112C21.7136 6.61899 21.7263 6.71247 21.9972 6.86298C22.5218 7.15444 22.9307 6.45897 23.2183 6.13029" stroke="#E3E3E3" stroke-linecap="round" stroke-linejoin="round"/>
<path d="M25.1953 32.9224C25.3437 31.9374 25.3962 31.2785 26.4979 31.2942C27.1335 31.3033 27.5469 31.5625 28.0537 31.9093C29.2229 32.7093 29.3444 30.5032 29.4287 29.8288" stroke="#E3E3E3" stroke-linecap="round" stroke-linejoin="round"/>
<path d="M7.61035 28.2005C9.17603 28.047 9.19283 28.9558 9.23856 30.1906C9.29281 31.6552 11.208 30.1834 11.6809 29.8287" stroke="#E3E3E3" stroke-linecap="round" stroke-linejoin="round"/>
<path d="M32.522 12.7326C33.0043 13.6518 33.7467 14.7268 33.0195 15.7086C32.8587 15.9257 32.6648 16.1004 32.522 16.3146" stroke="#E3E3E3" stroke-linecap="round" stroke-linejoin="round"/>
</svg>
