<svg width="59" height="58" viewBox="0 0 59 58" fill="none" xmlns="http://www.w3.org/2000/svg">
<path d="M32.5494 42.3057C29.674 40.9896 24.471 41.8118 32.0311 31.0229C30.6936 28.0917 30.3754 21.344 23.8527 25.1714C12.3729 29.6166 25.8046 29.7896 20.0511 37.2888C20.1961 46.9163 14.5936 41.6157 9.57468 38.8085C7.15615 34.1699 2.47441 24.7708 15.2491 12.3271C20.6091 10.9892 29.4297 1.25605 41.0085 13.2763C43.7127 16.9582 50.9349 35.5993 44.4569 44.0429C36.8037 47.0063 38.7669 47.0568 32.5494 42.3057Z" fill="#EE6161" stroke="#F79595"/>
<path d="M22.0021 14.6577C22.6619 13.9767 24.5679 12.6776 25.2999 14.0915C25.3836 14.2532 25.5271 14.6909 25.6821 14.7774C26.535 15.2538 27.6914 14.5596 28.3682 14.1082" stroke="#F79595" stroke-linecap="round" stroke-linejoin="round"/>
<path d="M40.9971 26.9397C41.8078 27.2837 41.5735 27.4282 41.306 28.1075C41.0961 28.6407 40.6251 28.8609 40.4246 29.37C39.9738 30.5151 40.7287 30.7109 41.6698 31.0887" stroke="#F79595" stroke-linecap="round" stroke-linejoin="round"/>
<path d="M36.3059 38.8556C36.5297 38.5111 37.2733 37.5698 37.7226 38.109C38.1586 38.6323 37.55 39.4719 37.5711 40.0509C37.5833 40.3855 38.1115 40.5219 38.3413 40.6142C38.8708 40.8267 39.3726 40.1811 39.7622 39.8394" stroke="#F79595" stroke-linecap="round" stroke-linejoin="round"/>
<path d="M11.0421 21.1254C11.262 20.5668 11.4819 20.0083 11.7018 19.4497C11.8313 19.1207 11.9643 18.4636 12.2411 18.2185C13.1916 17.3768 14.1123 19.4184 14.1928 20.0877C14.315 21.1025 14.4275 21.414 15.3624 21.743C16.7547 22.2331 17.7284 21.6069 18.2991 20.1573" stroke="#F79595" stroke-linecap="round" stroke-linejoin="round"/>
<path d="M12.5191 32.8867C13.0514 32.9912 14.2209 33.0922 14.6297 33.5337C14.9344 33.8628 14.1339 33.9179 14.0021 33.9262C13.7274 33.9435 12.8676 33.8807 13.1894 34.3883C13.5031 34.8831 14.0429 35.3202 14.4852 35.703" stroke="#F79595" stroke-linecap="round" stroke-linejoin="round"/>
<path d="M36.0698 17.9768C36.3672 17.6632 36.6583 17.2904 37.0509 17.6342C37.3053 17.857 36.7241 18.7477 36.6555 19.0404C36.3637 20.2841 38.5502 20.2862 39.1328 19.9595" stroke="#F79595" stroke-linecap="round" stroke-linejoin="round"/>
<path d="M33.6948 24.0086C33.7688 24.2808 33.8503 25.2417 34.1593 24.7813" stroke="white" stroke-linecap="round" stroke-linejoin="round"/>
<path d="M32.2642 37.4061C32.4205 37.4689 32.8177 37.6283 32.928 37.6726" stroke="white" stroke-linecap="round" stroke-linejoin="round"/>
<path d="M17.627 16.0065C17.7009 16.2787 17.7825 17.2396 18.0915 16.7792" stroke="white" stroke-linecap="round" stroke-linejoin="round"/>
<path d="M35.0391 32.3103C35.113 32.5825 35.1946 33.5434 35.5036 33.083" stroke="white" stroke-linecap="round" stroke-linejoin="round"/>
<path d="M43.1328 33.2305C43.2067 33.5027 43.2883 34.4636 43.5973 34.0032" stroke="white" stroke-linecap="round" stroke-linejoin="round"/>
<path d="M28.0957 10.8941C28.1696 11.1663 28.2512 12.1272 28.5602 11.6668" stroke="white" stroke-linecap="round" stroke-linejoin="round"/>
<path d="M17.396 32.2142C17.4699 32.4864 17.5515 33.4474 17.8605 32.9869" stroke="white" stroke-linecap="round" stroke-linejoin="round"/>
<path d="M34.7427 12.7882C34.8166 13.0604 34.8982 14.0213 35.2072 13.5609" stroke="white" stroke-linecap="round" stroke-linejoin="round"/>
<path d="M31.1758 17.9834C31.2497 18.2556 31.3313 19.2166 31.6403 18.7561" stroke="white" stroke-linecap="round" stroke-linejoin="round"/>
<path d="M42.2725 22.779C42.3464 23.0512 42.428 24.0121 42.737 23.5517" stroke="white" stroke-width="2" stroke-linecap="round" stroke-linejoin="round"/>
<path d="M42.2725 22.779C42.3464 23.0512 42.428 24.0121 42.737 23.5517" stroke="white" stroke-linecap="round" stroke-linejoin="round"/>
<path d="M24.8013 21.2149C25.2449 21.393 25.6809 21.568 26.1289 21.7479" stroke="white" stroke-linecap="round" stroke-linejoin="round"/>
<path d="M10.4858 26.3355C10.3979 26.559 10.3099 26.7824 10.222 27.0058" stroke="white" stroke-linecap="round" stroke-linejoin="round"/>
</svg>
