<svg width="38" height="34" viewBox="0 0 38 34" fill="none" xmlns="http://www.w3.org/2000/svg">
<mask id="path-1-inside-1" fill="white">
<path fill-rule="evenodd" clip-rule="evenodd" d="M34.5797 0.264419C36.4782 -0.704137 38.5813 1.15635 37.8527 3.15987L27.9247 30.4594C27.715 31.0359 27.4169 31.5545 27.0512 32.0055C26.3535 33.1986 25.0588 34 23.577 34H14.3985C12.871 34 11.5424 33.1485 10.8616 31.8942C10.5358 31.4698 10.2685 30.989 10.0759 30.4594L0.147854 3.15987C-0.580767 1.15635 1.52233 -0.704137 3.42088 0.26442C3.80164 0.458667 4.1221 0.753263 4.34769 1.11642L15.5969 19.226H22.4037L33.6529 1.11642C33.8784 0.753263 34.1989 0.458667 34.5797 0.264419Z"/>
</mask>
<path fill-rule="evenodd" clip-rule="evenodd" d="M34.5797 0.264419C36.4782 -0.704137 38.5813 1.15635 37.8527 3.15987L27.9247 30.4594C27.715 31.0359 27.4169 31.5545 27.0512 32.0055C26.3535 33.1986 25.0588 34 23.577 34H14.3985C12.871 34 11.5424 33.1485 10.8616 31.8942C10.5358 31.4698 10.2685 30.989 10.0759 30.4594L0.147854 3.15987C-0.580767 1.15635 1.52233 -0.704137 3.42088 0.26442C3.80164 0.458667 4.1221 0.753263 4.34769 1.11642L15.5969 19.226H22.4037L33.6529 1.11642C33.8784 0.753263 34.1989 0.458667 34.5797 0.264419Z" fill="#87C9AE"/>
<path d="M37.8527 3.15987L38.7925 3.50164V3.50164L37.8527 3.15987ZM34.5797 0.264419L35.0341 1.1552L35.0341 1.1552L34.5797 0.264419ZM27.9247 30.4594L28.8644 30.8012L27.9247 30.4594ZM27.0512 32.0055L26.2744 31.3757L26.2264 31.4349L26.188 31.5007L27.0512 32.0055ZM10.8616 31.8942L11.7404 31.4171L11.7028 31.3479L11.6548 31.2854L10.8616 31.8942ZM10.0759 30.4594L9.13611 30.8012L10.0759 30.4594ZM0.147854 3.15987L1.08764 2.8181L0.147854 3.15987ZM3.42088 0.26442L2.96644 1.1552V1.1552L3.42088 0.26442ZM4.34769 1.11642L5.19714 0.588758L5.19714 0.588758L4.34769 1.11642ZM15.5969 19.226L14.7474 19.7537L15.0408 20.226H15.5969V19.226ZM22.4037 19.226V20.226H22.9597L23.2531 19.7537L22.4037 19.226ZM33.6529 1.11642L34.5023 1.64408V1.64408L33.6529 1.11642ZM38.7925 3.50164C39.831 0.645987 36.8336 -2.00808 34.1252 -0.62636L35.0341 1.1552C36.1228 0.599802 37.3316 1.6667 36.9129 2.8181L38.7925 3.50164ZM28.8644 30.8012L38.7925 3.50164L36.9129 2.8181L26.9849 30.1176L28.8644 30.8012ZM27.8279 32.6353C28.2627 32.0992 28.6163 31.4834 28.8644 30.8012L26.9849 30.1176C26.8137 30.5883 26.5711 31.0098 26.2744 31.3757L27.8279 32.6353ZM23.577 35C25.4285 35 27.0447 33.9974 27.9144 32.5104L26.188 31.5007C25.6622 32.3997 24.6891 33 23.577 33V35ZM14.3985 35H23.577V33H14.3985V35ZM9.9827 32.3713C10.8315 33.9349 12.4899 35 14.3985 35V33C13.2522 33 12.2534 32.3621 11.7404 31.4171L9.9827 32.3713ZM9.13611 30.8012C9.36402 31.4279 9.68104 31.9986 10.0683 32.5031L11.6548 31.2854C11.3905 30.941 11.173 30.5502 11.0157 30.1177L9.13611 30.8012ZM-0.791929 3.50164L9.13611 30.8012L11.0157 30.1177L1.08764 2.8181L-0.791929 3.50164ZM3.87532 -0.62636C1.1669 -2.00807 -1.83045 0.645985 -0.791929 3.50164L1.08764 2.8181C0.668911 1.66671 1.87776 0.599801 2.96644 1.1552L3.87532 -0.62636ZM5.19714 0.588758C4.87544 0.0708648 4.4184 -0.349303 3.87532 -0.62636L2.96644 1.1552C3.18488 1.26664 3.36877 1.43566 3.49823 1.64408L5.19714 0.588758ZM16.4463 18.6983L5.19714 0.588758L3.49823 1.64408L14.7474 19.7537L16.4463 18.6983ZM15.5969 20.226H22.4037V18.226H15.5969V20.226ZM32.8034 0.588758L21.5542 18.6983L23.2531 19.7537L34.5023 1.64408L32.8034 0.588758ZM34.1252 -0.626361C33.5821 -0.349304 33.1251 0.0708644 32.8034 0.588758L34.5023 1.64408C34.6318 1.43566 34.8157 1.26664 35.0341 1.1552L34.1252 -0.626361Z" fill="#1E8875" mask="url(#path-1-inside-1)"/>
<ellipse cx="22.8147" cy="29.1667" rx="1.49876" ry="1.5" fill="#D4F9F7"/>
<ellipse cx="9.99185" cy="17" rx="0.999176" ry="0.999999" fill="#D4F9F7"/>
<ellipse cx="13.4889" cy="23.5" rx="1.1657" ry="1.16667" fill="#D4F9F7"/>
<ellipse cx="26.6446" cy="19.6667" rx="0.666118" ry="0.666667" fill="#5BB361"/>
<ellipse cx="17.652" cy="30" rx="0.666118" ry="0.666666" fill="#5BB361"/>
<ellipse cx="23.6471" cy="23" rx="0.666117" ry="0.666666" fill="#D4F9F7"/>
<ellipse cx="30.4747" cy="13.8333" rx="0.499587" ry="0.5" fill="#5BB361"/>
<ellipse cx="10.4913" cy="20.8333" rx="0.499588" ry="0.500001" fill="#5BB361"/>
<ellipse cx="7.66021" cy="14.6667" rx="0.333058" ry="0.333333" fill="#D4F9F7"/>
<ellipse cx="6.99419" cy="10.3333" rx="0.333059" ry="0.333333" fill="#5BB361"/>
<ellipse cx="31.3077" cy="9.66666" rx="0.333059" ry="0.333334" fill="#D4F9F7"/>
<ellipse cx="14.3213" cy="29" rx="0.333059" ry="0.333333" fill="#5BB361"/>
<ellipse cx="29.6421" cy="17.3333" rx="0.333058" ry="0.333333" fill="#D4F9F7"/>
<path d="M3.70721 4.58318C3.641 4.92274 3.56892 5.24085 3.81925 5.53201C4.0454 5.79505 4.49753 5.80303 4.79316 5.98056" stroke="#308677" stroke-linecap="round" stroke-linejoin="round"/>
<path d="M6.42188 11.8806C6.42188 12.5813 6.53756 13.3556 7.39148 13.3556C7.76068 13.3556 8.02953 12.9675 8.44296 12.9675C8.93122 12.9675 8.74908 13.6655 8.67136 13.9767" stroke="#308677" stroke-linecap="round" stroke-linejoin="round"/>
<path d="M15.3208 26.4688C15.8044 26.1397 15.9827 25.9754 16.5619 26.003C16.8977 26.019 16.9347 26.6753 17.1049 26.9173C17.5281 27.5193 18.5077 27.0633 18.6562 26.4688" stroke="#308677" stroke-linecap="round" stroke-linejoin="round"/>
<path d="M18.3184 23.1097C18.3595 22.3137 18.673 22.3334 19.3267 22.3334" stroke="#308677" stroke-linecap="round" stroke-linejoin="round"/>
<path d="M28.2188 15.5294C28.2884 15.1344 28.3208 14.7081 28.7617 14.5978" stroke="#308677" stroke-linecap="round" stroke-linejoin="round"/>
<path d="M33.1829 6.83452C33.1829 7.30714 33.0178 8.04413 33.4156 8.30953" stroke="#308677" stroke-linecap="round" stroke-linejoin="round"/>
<path d="M25.8782 26.6759C25.7285 26.3138 25.6455 26.0479 25.6455 25.6667" stroke="#308677" stroke-linecap="round" stroke-linejoin="round"/>
<path d="M12.2229 27.0092C12.0732 26.6471 11.9902 26.3812 11.9902 26" stroke="#308677" stroke-linecap="round" stroke-linejoin="round"/>
</svg>
