<svg width="322" height="274" viewBox="0 0 322 274" fill="none" xmlns="http://www.w3.org/2000/svg">
<path d="M12.0544 112.522C12.0544 120.237 18.3089 126.491 26.0239 126.491L57.3327 126.491C68.5148 126.491 79.3668 130.282 88.1164 137.246C96.8661 144.209 107.718 148 118.9 148L264.617 148C284.212 148 300.095 132.116 300.095 112.521C300.095 92.9269 284.212 77.043 264.617 77.043L118.9 77.0436C107.718 77.0436 96.8661 80.8347 88.1164 87.7978C79.3668 94.7609 68.5151 98.5522 57.3327 98.5519L26.0239 98.5519C18.3086 98.5522 12.0541 104.807 12.0544 112.522Z" fill="white"/>
<path d="M300.096 112.522C300.096 92.9281 284.212 77.0442 264.617 77.0442L259.201 77.0442L259.201 148.001L264.617 148.001C284.212 148.001 300.096 132.117 300.096 112.522Z" fill="#C4C4C4"/>
<path d="M39.9939 98.5527L26.0238 98.5527C18.3088 98.5527 12.0543 104.807 12.0543 112.522C12.0543 120.237 18.3088 126.492 26.0238 126.492L39.9939 126.492L39.9939 98.5527Z" fill="#C4C4C4"/>
<path d="M304.53 112.523C304.53 90.5151 286.625 72.6104 264.617 72.6101L118.9 72.6104C106.764 72.6101 94.8507 76.7717 85.3548 84.3293C77.4223 90.6421 67.4705 94.1186 57.3322 94.119L26.0234 94.119C21.1077 94.119 16.4861 96.0334 13.0102 99.5093C9.53428 102.985 7.61981 107.607 7.61981 112.523C7.62013 117.597 9.68416 122.197 13.0168 125.53C16.3494 128.862 20.95 130.926 26.024 130.927H57.3328C67.4708 130.927 77.4226 134.403 85.3555 140.716C94.851 148.273 106.764 152.435 118.9 152.436L264.618 152.436C286.625 152.435 304.529 134.53 304.53 112.523ZM26.0237 122.058C20.7656 122.058 16.4883 117.781 16.4883 112.523C16.488 109.975 17.48 107.581 19.281 105.78C21.082 103.979 23.4765 102.987 26.024 102.987L35.5901 102.987L35.5901 122.058L26.0237 122.058ZM118.9 143.567C108.762 143.567 98.8098 140.09 90.8769 133.777C81.381 126.22 69.4678 122.058 57.3319 122.058L44.4573 122.058L44.4573 102.987L57.3319 102.987C69.4678 102.987 81.381 98.8255 90.8766 91.2683C98.8092 84.9554 108.761 81.4786 118.899 81.4792L254.767 81.4789L254.767 143.567L118.9 143.567ZM264.617 143.567H263.636L263.635 81.4789L264.617 81.4789C273.176 81.4789 280.936 84.9598 286.558 90.5819C292.179 96.2028 295.661 103.965 295.661 112.523C295.662 129.641 281.735 143.567 264.617 143.567Z" fill="#989898"/>
<path d="M107.527 117.209L107.527 109.193C107.527 101.835 113.492 95.8692 120.851 95.8692L227.552 95.8692C234.91 95.8692 240.876 101.835 240.876 109.193L240.876 117.209C240.876 124.567 234.91 130.533 227.552 130.533L120.851 130.533C113.492 130.533 107.527 124.568 107.527 117.209Z" fill="#D4F9F7" fill-opacity="0.45"/>
</svg>
